<svg width="35" height="35" viewBox="0 0 35 35" fill="none" xmlns="http://www.w3.org/2000/svg">
<circle cx="17.5" cy="17.5" r="17.5" fill="white"/>
<path d="M25 27L18 22L11 27V11C11 10.4696 11.2107 9.96086 11.5858 9.58579C11.9609 9.21071 12.4696 9 13 9H23C23.5304 9 24.0391 9.21071 24.4142 9.58579C24.7893 9.96086 25 10.4696 25 11V27Z" stroke="#1F5473" stroke-width="2" stroke-linecap="round" stroke-linejoin="round"/>
<g clip-path="url(#clip0_269_2419)">
<path d="M10.5 10.25V25.4375C10.4999 25.5352 10.5281 25.6312 10.5818 25.7161C10.6355 25.801 10.7128 25.8718 10.8061 25.9217C10.8995 25.9715 11.0056 25.9986 11.1141 26.0003C11.2226 26.002 11.3298 25.9783 11.425 25.9314L18 22.7026L24.575 25.9314C24.6702 25.9783 24.7774 26.002 24.8859 26.0003C24.9944 25.9986 25.1005 25.9715 25.1939 25.9217C25.2872 25.8718 25.3645 25.801 25.4182 25.7161C25.4719 25.6312 25.5001 25.5352 25.5 25.4375V10.25C25.5 9.65326 25.2366 9.08097 24.7678 8.65901C24.2989 8.23705 23.663 8 23 8H13C12.337 8 11.7011 8.23705 11.2322 8.65901C10.7634 9.08097 10.5 9.65326 10.5 10.25V10.25Z" fill="#1F5473"/>
</g>
<defs>
<clipPath id="clip0_269_2419">
<rect width="20" height="18" fill="white" transform="translate(8 8)"/>
</clipPath>
</defs>
</svg>
