<svg width="19" height="19" viewBox="0 0 19 19" fill="none" xmlns="http://www.w3.org/2000/svg">
<path d="M1.00397 18.2193C0.865234 18.219 0.728062 18.1899 0.601181 18.1338C0.474299 18.0777 0.360485 17.9958 0.266974 17.8933C0.171773 17.7917 0.0991274 17.6711 0.0538026 17.5394C0.00847784 17.4077 -0.00850273 17.268 0.00397411 17.1293L0.248974 14.4353L11.567 3.12129L15.104 6.65729L3.78897 17.9703L1.09497 18.2153C1.06472 18.2181 1.03435 18.2194 1.00397 18.2193V18.2193ZM15.81 5.95029L12.274 2.41429L14.395 0.293287C14.4878 0.20031 14.5981 0.126551 14.7195 0.0762269C14.8409 0.0259027 14.9711 0 15.1025 0C15.2339 0 15.364 0.0259027 15.4854 0.0762269C15.6068 0.126551 15.7171 0.20031 15.81 0.293287L17.931 2.41429C18.024 2.50716 18.0977 2.61745 18.148 2.73885C18.1984 2.86024 18.2243 2.99037 18.2243 3.12179C18.2243 3.2532 18.1984 3.38333 18.148 3.50473C18.0977 3.62613 18.024 3.73641 17.931 3.82929L15.811 5.94929L15.81 5.95029V5.95029Z" fill="black"/>
</svg>
