<svg width="32" height="15" viewBox="0 0 32 15" fill="none" xmlns="http://www.w3.org/2000/svg">
<rect x="0.25" y="0.25" width="31.5" height="14.5" rx="2.75" stroke="black" stroke-width="0.5"/>
<path d="M10.9065 11V5.14H8.92648V4.44H13.7265V5.14H11.7465V11H10.9065ZM15.2154 11.12C14.8087 11.12 14.4687 11 14.1954 10.76C13.9287 10.52 13.7954 10.18 13.7954 9.74C13.7954 9.20667 14.0321 8.8 14.5054 8.52C14.9787 8.23333 15.7354 8.03333 16.7754 7.92C16.7754 7.76667 16.7587 7.61667 16.7254 7.47C16.6987 7.32333 16.6487 7.19333 16.5754 7.08C16.5021 6.96667 16.3987 6.87667 16.2654 6.81C16.1387 6.73667 15.9754 6.7 15.7754 6.7C15.4954 6.7 15.2321 6.75333 14.9854 6.86C14.7387 6.96667 14.5187 7.08667 14.3254 7.22L14.0054 6.65C14.2321 6.50333 14.5087 6.36333 14.8354 6.23C15.1621 6.09 15.5221 6.02 15.9154 6.02C16.5087 6.02 16.9387 6.20333 17.2054 6.57C17.4721 6.93 17.6054 7.41333 17.6054 8.02V11H16.9254L16.8554 10.42H16.8254C16.5921 10.6133 16.3421 10.78 16.0754 10.92C15.8087 11.0533 15.5221 11.12 15.2154 11.12ZM15.4554 10.46C15.6887 10.46 15.9087 10.4067 16.1154 10.3C16.3221 10.1867 16.5421 10.0233 16.7754 9.81V8.46C16.3687 8.51333 16.0254 8.57667 15.7454 8.65C15.4721 8.72333 15.2487 8.81 15.0754 8.91C14.9087 9.01 14.7854 9.12667 14.7054 9.26C14.6321 9.38667 14.5954 9.52667 14.5954 9.68C14.5954 9.96 14.6787 10.16 14.8454 10.28C15.0121 10.4 15.2154 10.46 15.4554 10.46ZM20.7745 13.24C20.4745 13.24 20.2011 13.21 19.9545 13.15C19.7078 13.0967 19.4945 13.0133 19.3145 12.9C19.1411 12.7867 19.0045 12.65 18.9045 12.49C18.8111 12.33 18.7645 12.1433 18.7645 11.93C18.7645 11.7233 18.8278 11.5267 18.9545 11.34C19.0811 11.1533 19.2545 10.9833 19.4745 10.83V10.79C19.3545 10.7167 19.2511 10.6167 19.1645 10.49C19.0845 10.3567 19.0445 10.1933 19.0445 10C19.0445 9.79333 19.1011 9.61333 19.2145 9.46C19.3278 9.30667 19.4478 9.18667 19.5745 9.1V9.06C19.4145 8.92667 19.2678 8.75 19.1345 8.53C19.0078 8.30333 18.9445 8.04333 18.9445 7.75C18.9445 7.48333 18.9911 7.24333 19.0845 7.03C19.1845 6.81667 19.3178 6.63667 19.4845 6.49C19.6511 6.33667 19.8445 6.22 20.0645 6.14C20.2911 6.06 20.5278 6.02 20.7745 6.02C20.9078 6.02 21.0311 6.03333 21.1445 6.06C21.2645 6.08 21.3711 6.10667 21.4645 6.14H23.1545V6.77H22.1545C22.2678 6.88333 22.3611 7.02667 22.4345 7.2C22.5145 7.37333 22.5545 7.56333 22.5545 7.77C22.5545 8.03 22.5078 8.26667 22.4145 8.48C22.3211 8.68667 22.1945 8.86333 22.0345 9.01C21.8745 9.15 21.6845 9.26 21.4645 9.34C21.2511 9.42 21.0211 9.46 20.7745 9.46C20.6545 9.46 20.5311 9.44667 20.4045 9.42C20.2778 9.38667 20.1578 9.34333 20.0445 9.29C19.9578 9.36333 19.8845 9.44667 19.8245 9.54C19.7645 9.62667 19.7345 9.73667 19.7345 9.87C19.7345 10.0233 19.7945 10.15 19.9145 10.25C20.0345 10.35 20.2611 10.4 20.5945 10.4H21.5345C22.1011 10.4 22.5245 10.4933 22.8045 10.68C23.0911 10.86 23.2345 11.1533 23.2345 11.56C23.2345 11.7867 23.1778 12 23.0645 12.2C22.9511 12.4067 22.7878 12.5867 22.5745 12.74C22.3611 12.8933 22.1011 13.0133 21.7945 13.1C21.4945 13.1933 21.1545 13.24 20.7745 13.24ZM20.7745 8.91C20.9145 8.91 21.0445 8.88333 21.1645 8.83C21.2911 8.77667 21.4011 8.7 21.4945 8.6C21.5945 8.5 21.6711 8.38 21.7245 8.24C21.7778 8.09333 21.8045 7.93 21.8045 7.75C21.8045 7.39 21.7045 7.11333 21.5045 6.92C21.3045 6.72 21.0611 6.62 20.7745 6.62C20.4878 6.62 20.2445 6.72 20.0445 6.92C19.8445 7.11333 19.7445 7.39 19.7445 7.75C19.7445 7.93 19.7711 8.09333 19.8245 8.24C19.8778 8.38 19.9511 8.5 20.0445 8.6C20.1445 8.7 20.2545 8.77667 20.3745 8.83C20.5011 8.88333 20.6345 8.91 20.7745 8.91ZM20.8945 12.67C21.1278 12.67 21.3378 12.64 21.5245 12.58C21.7178 12.5267 21.8811 12.4533 22.0145 12.36C22.1478 12.2733 22.2511 12.17 22.3245 12.05C22.3978 11.93 22.4345 11.8067 22.4345 11.68C22.4345 11.4533 22.3511 11.2967 22.1845 11.21C22.0178 11.1233 21.7745 11.08 21.4545 11.08H20.6145C20.5211 11.08 20.4178 11.0733 20.3045 11.06C20.1978 11.0533 20.0911 11.0333 19.9845 11C19.8111 11.1267 19.6845 11.26 19.6045 11.4C19.5245 11.54 19.4845 11.68 19.4845 11.82C19.4845 12.08 19.6078 12.2867 19.8545 12.44C20.1078 12.5933 20.4545 12.67 20.8945 12.67Z" fill="black"/>
</svg>
